<?xml version="1.0" encoding="UTF-8"?>
<svg version="1.1" xmlns="http://www.w3.org/2000/svg" width="1254" height="1254">
<path d="M0 0 C413.82 0 827.64 0 1254 0 C1254 413.82 1254 827.64 1254 1254 C840.18 1254 426.36 1254 0 1254 C0 840.18 0 426.36 0 0 Z " fill="#FBFAFA" transform="translate(0,0)"/>
<path d="M0 0 C1.44070862 0.00373123 1.44070862 0.00373123 2.91052246 0.00753784 C16.85410114 0.06348304 30.37463118 0.45049107 44.0625 3.3125 C45.24166992 3.54888184 46.42083984 3.78526367 47.63574219 4.02880859 C67.73987328 8.10925085 87.39532126 12.87219249 105.6484375 22.51171875 C108.05802987 23.78268223 110.45214468 24.98702588 112.9140625 26.14453125 C152.12826436 44.71262341 185.92178878 78.35767867 201.0625 119.3125 C202.22997533 122.66439388 203.29542525 126.03711637 204.3125 129.4375 C204.66368896 130.56973999 204.66368896 130.56973999 205.02197266 131.72485352 C210.82001573 152.22166313 210.50308815 173.5128213 210.34741211 194.61450195 C210.01750005 213.83844434 210.01750005 213.83844434 217.0625 231.3125 C217.80824667 232.98117372 218.51879804 234.66617375 219.1875 236.3671875 C219.49848633 237.15416016 219.80947266 237.94113281 220.12988281 238.75195312 C229.06262803 262.07998096 234.17015038 286.53724208 237.0625 311.3125 C237.39121094 310.24515625 237.71992187 309.1778125 238.05859375 308.078125 C241.30592575 297.80657127 245.20541671 288.00596127 249.71875 278.2265625 C250.08307129 277.42702148 250.44739258 276.62748047 250.82275391 275.80371094 C252.0625 273.3125 252.0625 273.3125 253.65771484 270.79785156 C259.57925121 260.93506137 258.82277136 250.94984185 258.6875 239.8125 C258.31910304 196.78373546 272.97933034 156.13317829 301.0625 123.3125 C301.81402344 122.425625 302.56554687 121.53875 303.33984375 120.625 C307.39423279 115.93275952 307.39423279 115.93275952 309.0625 114.3125 C309.7225 114.3125 310.3825 114.3125 311.0625 114.3125 C311.3925 113.3225 311.7225 112.3325 312.0625 111.3125 C313.48828125 109.83984375 313.48828125 109.83984375 315.375 108.25 C316.10203125 107.63640625 316.8290625 107.0228125 317.578125 106.390625 C318.39796875 105.70484375 319.2178125 105.0190625 320.0625 104.3125 C321.38507813 103.16007813 321.38507813 103.16007813 322.734375 101.984375 C360.4894405 69.53542681 410.51983303 51.64488907 460.0625 50.3125 C460.81499023 50.29058594 461.56748047 50.26867187 462.34277344 50.24609375 C504.00213667 49.20156312 504.00213667 49.20156312 517.0078125 57.1015625 C519.0625 59.3125 519.0625 59.3125 519.64453125 61.6796875 C518.8550513 65.25089213 516.96147205 67.62159447 514.75 70.4375 C500.60227309 89.4609542 490.67599831 111.09100836 483.11889648 133.49365234 C480.9162442 139.95402913 478.07297213 146.06628391 475.08251953 152.19433594 C473.94424871 154.55805963 472.84387047 156.93752039 471.74609375 159.3203125 C464.00814788 176.02807786 455.23461796 191.65564922 444.0625 206.3125 C443.36979004 207.22950684 443.36979004 207.22950684 442.66308594 208.16503906 C430.29975035 224.38620096 415.92768729 239.72833095 399.0625 251.3125 C398.51851562 251.69019531 397.97453125 252.06789063 397.4140625 252.45703125 C370.29063747 271.14344619 339.40654059 280.24145504 307.16894531 285.27148438 C296.48623474 286.9477947 286.6821199 289.10818117 277 294.0625 C276.310271 294.41393066 275.62054199 294.76536133 274.90991211 295.12744141 C258.50420869 303.69819029 248.2685791 316.74606669 242.22265625 334.09765625 C241.83362625 335.20719162 241.83362625 335.20719162 241.43673706 336.33914185 C238.8963819 343.66043248 236.62371294 351.05727913 234.36608887 358.4694519 C216.99017725 415.26467732 216.99017725 415.26467732 195.25 427.75 C190.6243424 429.88561795 186.05783149 429.68100806 181.0625 429.3125 C180.7325 427.9925 180.4025 426.6725 180.0625 425.3125 C180.75214844 424.86261719 181.44179688 424.41273438 182.15234375 423.94921875 C204.78254048 408.45886461 216.12050235 379.49801915 221.0625 353.3125 C221.23765137 352.39315674 221.41280273 351.47381348 221.59326172 350.52661133 C223.12550449 341.67145096 223.46471048 332.95728582 223.4375 324 C223.43568726 322.89422607 223.43568726 322.89422607 223.43383789 321.76611328 C224.10395612 296.11847668 224.10395612 296.11847668 213.3046875 274.1953125 C212.56476563 273.57398438 211.82484375 272.95265625 211.0625 272.3125 C210.34320312 271.62929688 209.62390625 270.94609375 208.8828125 270.2421875 C202.3347001 264.44369066 194.70860349 260.80606428 186.84521484 257.14501953 C185.37362486 256.45779386 183.9136228 255.74581245 182.45703125 255.02734375 C177.66782892 252.73306285 172.88302283 251.42437389 167.72265625 250.2109375 C160.39498278 248.41225564 153.16425225 246.2559222 145.92285156 244.140625 C143.07552244 243.31627024 140.22198493 242.51680231 137.3671875 241.71875 C110.57795954 234.08718723 86.80220939 221.99611751 66.0625 203.3125 C64.66697347 202.14546637 63.27117914 200.97875281 61.875 199.8125 C27.72635956 169.42659957 9.23208023 124.27667285 -5.09375 82.0546875 C-5.36646729 81.25097717 -5.63918457 80.44726685 -5.92016602 79.61920166 C-7.04273212 76.30828907 -8.16475334 72.99721172 -9.28076172 69.68408203 C-15.54106906 51.03784591 -15.54106906 51.03784591 -24.125 33.375 C-24.49939209 32.70605713 -24.87378418 32.03711426 -25.25952148 31.34790039 C-28.6314202 25.49341781 -32.65813227 20.38342671 -37.06640625 15.27734375 C-39.38473755 11.60382923 -39.69599263 9.57713735 -38.9375 5.3125 C-28.8355195 -2.21618598 -11.97041625 -0.04928692 0 0 Z " fill="#F9F9F9" transform="translate(386.9375,441.6875)"/>
<path d="M0 0 C0.86409988 -0.0033284 1.72819977 -0.0066568 2.6184845 -0.01008606 C4.43616205 -0.0151155 6.2538487 -0.01749563 8.0715332 -0.01733398 C10.80761482 -0.01951182 13.54328676 -0.03768671 16.27929688 -0.05664062 C26.26784428 -0.08757123 35.79376024 0.34680914 45.64453125 2.16796875 C44.49191943 5.20295253 43.28786438 7.94925679 41.5078125 10.6640625 C41.09861572 11.29836182 40.68941895 11.93266113 40.26782227 12.58618164 C39.61898071 13.58572876 39.61898071 13.58572876 38.95703125 14.60546875 C31.64299369 26.08192363 25.99890686 38.12786224 21.0078125 50.78125 C20.51229735 52.03314057 20.01651926 53.28492708 19.52050781 54.53662109 C19.26531372 55.1808905 19.01011963 55.82515991 18.74719238 56.48895264 C13.98070445 68.5023726 9.15665945 80.47284744 3.64453125 92.16796875 C3.3309668 92.8336084 3.01740234 93.49924805 2.69433594 94.18505859 C-19.02458652 139.83440472 -52.61716947 176.782793 -99.35546875 197.16796875 C-100.12012451 197.50610596 -100.88478027 197.84424316 -101.67260742 198.19262695 C-108.65354914 201.14607496 -115.8037859 202.98447306 -123.16796875 204.73046875 C-125.08077637 205.19042236 -125.08077637 205.19042236 -127.03222656 205.65966797 C-135.37461752 207.61278862 -143.65050334 209.04945663 -152.14550781 210.11010742 C-167.29210987 212.09245113 -183.12405784 216.86146045 -195.35546875 226.16796875 C-196.01546875 226.16796875 -196.67546875 226.16796875 -197.35546875 226.16796875 C-195.1596352 218.9795812 -192.24125516 212.43391492 -188.85546875 205.73046875 C-188.32646973 204.68004395 -187.7974707 203.62961914 -187.25244141 202.54736328 C-179.80666017 187.95966498 -171.2049865 174.24657057 -161.35546875 161.16796875 C-160.68644531 160.27335938 -160.01742187 159.37875 -159.328125 158.45703125 C-139.45325283 133.05076471 -111.06226166 110.26597087 -79.35546875 102.16796875 C-78.36546875 101.83796875 -77.37546875 101.50796875 -76.35546875 101.16796875 C-74.51793578 100.55545776 -72.6690188 99.97454334 -70.8046875 99.44921875 C-69.43763672 99.0625 -69.43763672 99.0625 -68.04296875 98.66796875 C-67.18058594 98.43078125 -66.31820312 98.19359375 -65.4296875 97.94921875 C-63.17191462 97.36702076 -63.17191462 97.36702076 -62.35546875 95.16796875 C-80.10776638 89.70572333 -97.453972 96.06365196 -113.35546875 104.16796875 C-141.93318022 119.65308265 -165.49129822 143.48225161 -182.41796875 171.04296875 C-183.05734375 172.07421875 -183.69671875 173.10546875 -184.35546875 174.16796875 C-184.68546875 174.16796875 -185.01546875 174.16796875 -185.35546875 174.16796875 C-186.20565212 151.33897082 -181.71776255 128.63058826 -171.35546875 108.16796875 C-170.78526298 106.95168854 -170.21775939 105.7341394 -169.65234375 104.515625 C-158.40924481 80.66760347 -141.15668892 60.27819211 -120.35546875 44.16796875 C-119.79730469 43.73339355 -119.23914063 43.29881836 -118.6640625 42.85107422 C-109.36958626 35.6631757 -99.75290373 29.62506188 -89.35546875 24.16796875 C-88.67274902 23.80541992 -87.9900293 23.44287109 -87.28662109 23.06933594 C-78.83610447 18.60453699 -70.54052784 14.90997904 -61.35546875 12.16796875 C-59.87445936 11.67345363 -58.39516885 11.17374922 -56.91796875 10.66796875 C-55.82935547 10.31025391 -55.82935547 10.31025391 -54.71875 9.9453125 C-53.02432374 9.38797229 -51.33470596 8.81593079 -49.6484375 8.234375 C-33.73433882 2.98415246 -16.76115782 0.02312865 0 0 Z " fill="#F9F9F9" transform="translate(843.35546875,504.83203125)"/>
<path d="M0 0 C1.44070862 0.00373123 1.44070862 0.00373123 2.91052246 0.00753784 C16.85410114 0.06348304 30.37463118 0.45049107 44.0625 3.3125 C45.24166992 3.54888184 46.42083984 3.78526367 47.63574219 4.02880859 C67.73987328 8.10925085 87.39532126 12.87219249 105.6484375 22.51171875 C108.05802987 23.78268223 110.45214468 24.98702588 112.9140625 26.14453125 C152.12826436 44.71262341 185.92178878 78.35767867 201.0625 119.3125 C202.22997533 122.66439388 203.29542525 126.03711637 204.3125 129.4375 C204.66368896 130.56973999 204.66368896 130.56973999 205.02197266 131.72485352 C210.82001573 152.22166313 210.50308815 173.5128213 210.34741211 194.61450195 C210.01750005 213.83844434 210.01750005 213.83844434 217.0625 231.3125 C217.80824667 232.98117372 218.51879804 234.66617375 219.1875 236.3671875 C219.49848633 237.15416016 219.80947266 237.94113281 220.12988281 238.75195312 C229.06262803 262.07998096 234.17015038 286.53724208 237.0625 311.3125 C237.39121094 310.24515625 237.71992187 309.1778125 238.05859375 308.078125 C241.30592575 297.80657127 245.20541671 288.00596127 249.71875 278.2265625 C250.08307129 277.42702148 250.44739258 276.62748047 250.82275391 275.80371094 C252.0625 273.3125 252.0625 273.3125 253.65771484 270.79785156 C259.57925121 260.93506137 258.82277136 250.94984185 258.6875 239.8125 C258.31910304 196.78373546 272.97933034 156.13317829 301.0625 123.3125 C301.81402344 122.425625 302.56554687 121.53875 303.33984375 120.625 C307.39423279 115.93275952 307.39423279 115.93275952 309.0625 114.3125 C309.7225 114.3125 310.3825 114.3125 311.0625 114.3125 C311.3925 113.3225 311.7225 112.3325 312.0625 111.3125 C313.48828125 109.83984375 313.48828125 109.83984375 315.375 108.25 C316.10203125 107.63640625 316.8290625 107.0228125 317.578125 106.390625 C318.39796875 105.70484375 319.2178125 105.0190625 320.0625 104.3125 C321.38507813 103.16007813 321.38507813 103.16007813 322.734375 101.984375 C360.4894405 69.53542681 410.51983303 51.64488907 460.0625 50.3125 C460.81499023 50.29058594 461.56748047 50.26867187 462.34277344 50.24609375 C504.00213667 49.20156312 504.00213667 49.20156312 517.0078125 57.1015625 C519.0625 59.3125 519.0625 59.3125 519.64453125 61.6796875 C518.8550513 65.25089213 516.96147205 67.62159447 514.75 70.4375 C500.60227309 89.4609542 490.67599831 111.09100836 483.11889648 133.49365234 C480.9162442 139.95402913 478.07297213 146.06628391 475.08251953 152.19433594 C473.94424871 154.55805963 472.84387047 156.93752039 471.74609375 159.3203125 C464.00814788 176.02807786 455.23461796 191.65564922 444.0625 206.3125 C443.36979004 207.22950684 443.36979004 207.22950684 442.66308594 208.16503906 C430.29975035 224.38620096 415.92768729 239.72833095 399.0625 251.3125 C398.51851562 251.69019531 397.97453125 252.06789063 397.4140625 252.45703125 C370.29063747 271.14344619 339.40654059 280.24145504 307.16894531 285.27148438 C296.48623474 286.9477947 286.6821199 289.10818117 277 294.0625 C276.310271 294.41393066 275.62054199 294.76536133 274.90991211 295.12744141 C258.50420869 303.69819029 248.2685791 316.74606669 242.22265625 334.09765625 C241.83362625 335.20719162 241.83362625 335.20719162 241.43673706 336.33914185 C238.8963819 343.66043248 236.62371294 351.05727913 234.36608887 358.4694519 C216.99017725 415.26467732 216.99017725 415.26467732 195.25 427.75 C190.6243424 429.88561795 186.05783149 429.68100806 181.0625 429.3125 C180.7325 427.9925 180.4025 426.6725 180.0625 425.3125 C180.75214844 424.86261719 181.44179688 424.41273438 182.15234375 423.94921875 C204.78254048 408.45886461 216.12050235 379.49801915 221.0625 353.3125 C221.23765137 352.39315674 221.41280273 351.47381348 221.59326172 350.52661133 C223.12550449 341.67145096 223.46471048 332.95728582 223.4375 324 C223.43568726 322.89422607 223.43568726 322.89422607 223.43383789 321.76611328 C224.10395612 296.11847668 224.10395612 296.11847668 213.3046875 274.1953125 C212.56476563 273.57398438 211.82484375 272.95265625 211.0625 272.3125 C210.34320312 271.62929688 209.62390625 270.94609375 208.8828125 270.2421875 C202.3347001 264.44369066 194.70860349 260.80606428 186.84521484 257.14501953 C185.37362486 256.45779386 183.9136228 255.74581245 182.45703125 255.02734375 C177.66782892 252.73306285 172.88302283 251.42437389 167.72265625 250.2109375 C160.39498278 248.41225564 153.16425225 246.2559222 145.92285156 244.140625 C143.07552244 243.31627024 140.22198493 242.51680231 137.3671875 241.71875 C110.57795954 234.08718723 86.80220939 221.99611751 66.0625 203.3125 C64.66697347 202.14546637 63.27117914 200.97875281 61.875 199.8125 C27.72635956 169.42659957 9.23208023 124.27667285 -5.09375 82.0546875 C-5.36646729 81.25097717 -5.63918457 80.44726685 -5.92016602 79.61920166 C-7.04273212 76.30828907 -8.16475334 72.99721172 -9.28076172 69.68408203 C-15.54106906 51.03784591 -15.54106906 51.03784591 -24.125 33.375 C-24.49939209 32.70605713 -24.87378418 32.03711426 -25.25952148 31.34790039 C-28.6314202 25.49341781 -32.65813227 20.38342671 -37.06640625 15.27734375 C-39.38473755 11.60382923 -39.69599263 9.57713735 -38.9375 5.3125 C-28.8355195 -2.21618598 -11.97041625 -0.04928692 0 0 Z M-21.9375 13.3125 C-20.31087271 16.77217937 -18.30990768 19.90765892 -16.25 23.125 C-7.41782374 37.2903434 -2.0920385 52.61557315 3.05078125 68.41015625 C22.90973337 129.20543597 50.50366907 187.45752653 109.74487305 218.19482422 C125.66169822 226.23848308 142.20723453 230.5090824 159.41015625 234.91357422 C177.27038655 239.49477491 196.41811754 244.48434494 211.0625 256.3125 C211.7225 255.9825 212.3825 255.6525 213.0625 255.3125 C205.13346362 233.13451883 195.84438604 211.52812295 182.0625 192.3125 C181.64258789 191.72581543 181.22267578 191.13913086 180.79003906 190.53466797 C175.20173861 182.82403483 169.04835667 175.66949194 162.47460938 168.79199219 C161.5381544 167.8108516 160.60707769 166.82454753 159.68164062 165.83300781 C144.02434176 149.0825689 124.42336601 135.73480074 104.0625 125.3125 C104.0625 124.6525 104.0625 123.9925 104.0625 123.3125 C120.09405906 121.23148031 136.38436183 131.81590241 148.5625 141.0625 C154.49644129 145.68972384 160.09481953 150.6493383 165.53125 155.84863281 C166.56818341 156.83993586 167.61001769 157.82613333 168.65625 158.80761719 C179.41966198 168.9306579 188.47097851 180.14406759 196.06445312 192.83276367 C196.39380859 193.32107666 196.72316406 193.80938965 197.0625 194.3125 C197.3925 194.3125 197.7225 194.3125 198.0625 194.3125 C198.73483775 169.12664897 198.73483775 169.12664897 195.0625 144.3125 C194.7646826 142.88251165 194.47189676 141.45146814 194.18359375 140.01953125 C192.2178527 130.56235422 189.23019775 122.0616379 185.0625 113.3125 C184.56105469 112.18457031 184.05960938 111.05664062 183.54296875 109.89453125 C169.24091199 79.09813166 140.63030341 54.86051348 111.0625 39.3125 C110.44729492 38.98443359 109.83208984 38.65636719 109.19824219 38.31835938 C88.07649054 27.10914972 65.53735102 19.71847608 42.0625 15.3125 C41.2576416 15.16006836 40.4527832 15.00763672 39.62353516 14.85058594 C26.22701402 12.43759652 12.94763649 12.04612948 -0.625 12.0625 C-1.86813461 12.06352722 -1.86813461 12.06352722 -3.13638306 12.0645752 C-5.5116462 12.07105637 -7.8865521 12.08740946 -10.26171875 12.109375 C-11.33527115 12.1159613 -11.33527115 12.1159613 -12.43051147 12.12268066 C-15.73519246 12.16957893 -18.775903 12.29908301 -21.9375 13.3125 Z M389.35546875 77.28515625 C387.40596772 78.15861242 385.40542725 78.91667791 383.3984375 79.6484375 C369.31646752 84.87636682 356.18910452 92.51975371 344.0625 101.3125 C343.51577637 101.70373047 342.96905273 102.09496094 342.40576172 102.49804688 C317.55601432 120.41072836 297.70845956 143.35284349 285.0625 171.3125 C284.52109375 172.47007812 283.9796875 173.62765625 283.421875 174.8203125 C274.45338515 194.70499455 270.25114068 215.52599978 271.0625 237.3125 C273.91811567 233.85888481 276.49136652 230.28236013 279.02026367 226.58984375 C301.30901035 194.16984859 332.69710431 166.1088494 371.7109375 156.671875 C379.34461027 155.5052672 386.71445418 156.05156283 394.0625 158.3125 C391.46644422 161.59172836 388.8886279 162.02200822 384.875 162.8125 C364.49583242 166.87382877 345.46940446 177.9670967 329.0625 190.3125 C328.15886719 190.98796875 327.25523437 191.6634375 326.32421875 192.359375 C311.88294692 203.66695658 299.35052217 217.16001321 289.0625 232.3125 C288.58538574 233.00972168 288.10827148 233.70694336 287.61669922 234.42529297 C268.95019903 260.39755244 268.95019903 260.39755244 259.0625 289.3125 C261.39081082 288.16250707 263.69354676 286.97801994 265.98828125 285.76171875 C279.89600263 278.52713704 293.66670221 274.69584692 309.0625 272.3125 C317.46905808 270.99902224 325.76589639 269.38693538 334.0625 267.5 C335.69058594 267.14711914 335.69058594 267.14711914 337.3515625 266.78710938 C344.9889663 265.05092152 351.93244714 262.5347831 359.0625 259.3125 C359.89652344 258.94455322 360.73054688 258.57660645 361.58984375 258.19750977 C371.66707369 253.70391739 381.16087429 248.89625087 390.0625 242.3125 C391.11695313 241.54164063 392.17140625 240.77078125 393.2578125 239.9765625 C433.41198848 210.13771219 456.1521836 168.23467825 474.00415039 122.46289062 C476.44006912 116.24224899 478.99709633 110.24619712 482.0625 104.3125 C482.67161162 102.8018065 483.25947193 101.28211349 483.8125 99.75 C488.051899 88.96934082 493.95794433 79.06149184 500.59375 69.60546875 C502.2422931 67.48565191 502.2422931 67.48565191 502.0625 65.3125 C491.52043057 63.40321166 481.27312663 62.97021165 470.58789062 62.99682617 C467.96181041 62.99997089 465.33687834 62.97648748 462.7109375 62.95117188 C438.56239021 62.86128072 411.30987456 66.7379881 389.35546875 77.28515625 Z " fill="#0A0A09" transform="translate(386.9375,441.6875)"/>
<path d="M0 0 C1.32 0.66 2.64 1.32 4 2 C4.33 2.99 4.66 3.98 5 5 C-0.75 9 -0.75 9 -3 9 C-2.01 6.03 -1.02 3.06 0 0 Z " fill="#DBDADC" transform="translate(649,722)"/>
<path d="M0 0 C-1.57297914 1.86562642 -2.45510217 2.90238443 -4.90112305 3.34057617 C-5.59761963 3.32486572 -6.29411621 3.30915527 -7.01171875 3.29296875 C-7.76904297 3.28330078 -8.52636719 3.27363281 -9.30664062 3.26367188 C-10.48516602 3.2259668 -10.48516602 3.2259668 -11.6875 3.1875 C-12.88342773 3.16719727 -12.88342773 3.16719727 -14.10351562 3.14648438 C-16.06929967 3.11117089 -18.03473582 3.05736447 -20 3 C-20 2.67 -20 2.34 -20 2 C-17.41842632 1.46867611 -14.83538244 0.94965621 -12.25 0.4375 C-11.52039063 0.28603516 -10.79078125 0.13457031 -10.0390625 -0.02148438 C-6.33442927 -0.74557178 -3.60677678 -1.09817231 0 0 Z " fill="#BDBCBC" transform="translate(724,722)"/>
<path d="M0 0 C0.66 0.66 1.32 1.32 2 2 C2.99 1.67 3.98 1.34 5 1 C4.01 3.97 3.02 6.94 2 10 C1.67 10 1.34 10 1 10 C0.67 6.7 0.34 3.4 0 0 Z " fill="#D3D3D3" transform="translate(622,744)"/>
<path d="M0 0 C0.66 0.33 1.32 0.66 2 1 C-1.9050849 4.55007718 -4.97734643 5.81819916 -10 7 C-7.20283196 3.70921407 -3.80471422 1.93694542 0 0 Z " fill="#323232" transform="translate(746,519)"/>
<path d="M0 0 C0.33 0.99 0.66 1.98 1 3 C-0.21484375 5.26171875 -0.21484375 5.26171875 -1.9375 7.6875 C-2.50339844 8.49574219 -3.06929687 9.30398438 -3.65234375 10.13671875 C-4.09707031 10.75160156 -4.54179688 11.36648438 -5 12 C-5.33 11.01 -5.66 10.02 -6 9 C-4.78515625 6.73828125 -4.78515625 6.73828125 -3.0625 4.3125 C-2.49660156 3.50425781 -1.93070313 2.69601562 -1.34765625 1.86328125 C-0.90292969 1.24839844 -0.45820312 0.63351562 0 0 Z " fill="#262728" transform="translate(889,507)"/>
<path d="M0 0 C3.3 0 6.6 0 10 0 C10 0.33 10 0.66 10 1 C7.36 1.33 4.72 1.66 2 2 C2.33 2.99 2.66 3.98 3 5 C1.68 4.34 0.36 3.68 -1 3 C-0.67 2.01 -0.34 1.02 0 0 Z " fill="#3B3B3B" transform="translate(491,564)"/>
<path d="M0 0 C0.66 0.33 1.32 0.66 2 1 C1.1875 4.4375 1.1875 4.4375 0 8 C-0.99 8.33 -1.98 8.66 -3 9 C-2.01 6.03 -1.02 3.06 0 0 Z " fill="#D9D8D9" transform="translate(878,552)"/>
</svg>
